<mxfile host="app.diagrams.net" modified="2024-03-16T12:33:37.972Z" agent="Mozilla/5.0 (Windows NT 10.0; Win64; x64) AppleWebKit/537.36 (KHTML, like Gecko) Chrome/122.0.0.0 Safari/537.36" etag="p1uf_PKuXa7T_ZBD2R28" version="24.0.7" type="github">
  <diagram name="Page-1" id="b520641d-4fe3-3701-9064-5fc419738815">
    <mxGraphModel dx="1687" dy="2578" grid="1" gridSize="10" guides="1" tooltips="1" connect="1" arrows="1" fold="1" page="1" pageScale="1" pageWidth="1100" pageHeight="850" background="none" math="0" shadow="0">
      <root>
        <mxCell id="0" />
        <mxCell id="1" parent="0" />
        <mxCell id="21ea969265ad0168-10" value="accounts" style="swimlane;html=1;fontStyle=0;childLayout=stackLayout;horizontal=1;startSize=26;fillColor=#e0e0e0;horizontalStack=0;resizeParent=1;resizeLast=0;collapsible=1;marginBottom=0;swimlaneFillColor=#ffffff;align=center;rounded=1;shadow=0;comic=0;labelBackgroundColor=none;strokeWidth=1;fontFamily=Verdana;fontSize=12" parent="1" vertex="1">
          <mxGeometry x="270" y="-330" width="160" height="260" as="geometry" />
        </mxCell>
        <mxCell id="21ea969265ad0168-11" value="int id PK" style="text;html=1;strokeColor=none;fillColor=none;spacingLeft=4;spacingRight=4;whiteSpace=wrap;overflow=hidden;rotatable=0;points=[[0,0.5],[1,0.5]];portConstraint=eastwest;" parent="21ea969265ad0168-10" vertex="1">
          <mxGeometry y="26" width="160" height="26" as="geometry" />
        </mxCell>
        <mxCell id="21ea969265ad0168-12" value="varchar name" style="text;html=1;strokeColor=none;fillColor=none;spacingLeft=4;spacingRight=4;whiteSpace=wrap;overflow=hidden;rotatable=0;points=[[0,0.5],[1,0.5]];portConstraint=eastwest;" parent="21ea969265ad0168-10" vertex="1">
          <mxGeometry y="52" width="160" height="26" as="geometry" />
        </mxCell>
        <mxCell id="21ea969265ad0168-52" value="varchar pwd" style="text;html=1;strokeColor=none;fillColor=none;spacingLeft=4;spacingRight=4;whiteSpace=wrap;overflow=hidden;rotatable=0;points=[[0,0.5],[1,0.5]];portConstraint=eastwest;" parent="21ea969265ad0168-10" vertex="1">
          <mxGeometry y="78" width="160" height="26" as="geometry" />
        </mxCell>
        <mxCell id="7QoOAAo-u6qLjZLmUV11-21" value="varchar email" style="text;html=1;strokeColor=none;fillColor=none;spacingLeft=4;spacingRight=4;whiteSpace=wrap;overflow=hidden;rotatable=0;points=[[0,0.5],[1,0.5]];portConstraint=eastwest;" vertex="1" parent="21ea969265ad0168-10">
          <mxGeometry y="104" width="160" height="26" as="geometry" />
        </mxCell>
        <mxCell id="7QoOAAo-u6qLjZLmUV11-111" value="varchar phone" style="text;html=1;strokeColor=none;fillColor=none;spacingLeft=4;spacingRight=4;whiteSpace=wrap;overflow=hidden;rotatable=0;points=[[0,0.5],[1,0.5]];portConstraint=eastwest;" vertex="1" parent="21ea969265ad0168-10">
          <mxGeometry y="130" width="160" height="26" as="geometry" />
        </mxCell>
        <mxCell id="7QoOAAo-u6qLjZLmUV11-22" value="boolean is_activated" style="text;html=1;strokeColor=none;fillColor=none;spacingLeft=4;spacingRight=4;whiteSpace=wrap;overflow=hidden;rotatable=0;points=[[0,0.5],[1,0.5]];portConstraint=eastwest;" vertex="1" parent="21ea969265ad0168-10">
          <mxGeometry y="156" width="160" height="26" as="geometry" />
        </mxCell>
        <mxCell id="7QoOAAo-u6qLjZLmUV11-23" value="int bonus_coins" style="text;html=1;strokeColor=none;fillColor=none;spacingLeft=4;spacingRight=4;whiteSpace=wrap;overflow=hidden;rotatable=0;points=[[0,0.5],[1,0.5]];portConstraint=eastwest;" vertex="1" parent="21ea969265ad0168-10">
          <mxGeometry y="182" width="160" height="26" as="geometry" />
        </mxCell>
        <mxCell id="7QoOAAo-u6qLjZLmUV11-24" value="int restaurant FK" style="text;html=1;strokeColor=none;fillColor=none;spacingLeft=4;spacingRight=4;whiteSpace=wrap;overflow=hidden;rotatable=0;points=[[0,0.5],[1,0.5]];portConstraint=eastwest;" vertex="1" parent="21ea969265ad0168-10">
          <mxGeometry y="208" width="160" height="26" as="geometry" />
        </mxCell>
        <mxCell id="7QoOAAo-u6qLjZLmUV11-3" value="addresses" style="swimlane;html=1;fontStyle=0;childLayout=stackLayout;horizontal=1;startSize=26;fillColor=#e0e0e0;horizontalStack=0;resizeParent=1;resizeLast=0;collapsible=1;marginBottom=0;swimlaneFillColor=#ffffff;align=center;rounded=1;shadow=0;comic=0;labelBackgroundColor=none;strokeWidth=1;fontFamily=Verdana;fontSize=12" vertex="1" parent="1">
          <mxGeometry x="270" y="-650" width="160" height="266" as="geometry" />
        </mxCell>
        <mxCell id="7QoOAAo-u6qLjZLmUV11-4" value="int id PK" style="text;html=1;strokeColor=none;fillColor=none;spacingLeft=4;spacingRight=4;whiteSpace=wrap;overflow=hidden;rotatable=0;points=[[0,0.5],[1,0.5]];portConstraint=eastwest;" vertex="1" parent="7QoOAAo-u6qLjZLmUV11-3">
          <mxGeometry y="26" width="160" height="26" as="geometry" />
        </mxCell>
        <mxCell id="7QoOAAo-u6qLjZLmUV11-5" value="varchar street" style="text;html=1;strokeColor=none;fillColor=none;spacingLeft=4;spacingRight=4;whiteSpace=wrap;overflow=hidden;rotatable=0;points=[[0,0.5],[1,0.5]];portConstraint=eastwest;" vertex="1" parent="7QoOAAo-u6qLjZLmUV11-3">
          <mxGeometry y="52" width="160" height="26" as="geometry" />
        </mxCell>
        <mxCell id="7QoOAAo-u6qLjZLmUV11-7" value="varchar building" style="text;html=1;strokeColor=none;fillColor=none;spacingLeft=4;spacingRight=4;whiteSpace=wrap;overflow=hidden;rotatable=0;points=[[0,0.5],[1,0.5]];portConstraint=eastwest;" vertex="1" parent="7QoOAAo-u6qLjZLmUV11-3">
          <mxGeometry y="78" width="160" height="26" as="geometry" />
        </mxCell>
        <mxCell id="7QoOAAo-u6qLjZLmUV11-8" value="int entrance" style="text;html=1;strokeColor=none;fillColor=none;spacingLeft=4;spacingRight=4;whiteSpace=wrap;overflow=hidden;rotatable=0;points=[[0,0.5],[1,0.5]];portConstraint=eastwest;" vertex="1" parent="7QoOAAo-u6qLjZLmUV11-3">
          <mxGeometry y="104" width="160" height="26" as="geometry" />
        </mxCell>
        <mxCell id="7QoOAAo-u6qLjZLmUV11-9" value="int floor" style="text;html=1;strokeColor=none;fillColor=none;spacingLeft=4;spacingRight=4;whiteSpace=wrap;overflow=hidden;rotatable=0;points=[[0,0.5],[1,0.5]];portConstraint=eastwest;" vertex="1" parent="7QoOAAo-u6qLjZLmUV11-3">
          <mxGeometry y="130" width="160" height="26" as="geometry" />
        </mxCell>
        <mxCell id="7QoOAAo-u6qLjZLmUV11-10" value="int apartment" style="text;html=1;strokeColor=none;fillColor=none;spacingLeft=4;spacingRight=4;whiteSpace=wrap;overflow=hidden;rotatable=0;points=[[0,0.5],[1,0.5]];portConstraint=eastwest;" vertex="1" parent="7QoOAAo-u6qLjZLmUV11-3">
          <mxGeometry y="156" width="160" height="26" as="geometry" />
        </mxCell>
        <mxCell id="7QoOAAo-u6qLjZLmUV11-11" value="boolean has_intercom" style="text;html=1;strokeColor=none;fillColor=none;spacingLeft=4;spacingRight=4;whiteSpace=wrap;overflow=hidden;rotatable=0;points=[[0,0.5],[1,0.5]];portConstraint=eastwest;" vertex="1" parent="7QoOAAo-u6qLjZLmUV11-3">
          <mxGeometry y="182" width="160" height="26" as="geometry" />
        </mxCell>
        <mxCell id="7QoOAAo-u6qLjZLmUV11-12" value="varchar door_code" style="text;html=1;strokeColor=none;fillColor=none;spacingLeft=4;spacingRight=4;whiteSpace=wrap;overflow=hidden;rotatable=0;points=[[0,0.5],[1,0.5]];portConstraint=eastwest;" vertex="1" parent="7QoOAAo-u6qLjZLmUV11-3">
          <mxGeometry y="208" width="160" height="22" as="geometry" />
        </mxCell>
        <mxCell id="7QoOAAo-u6qLjZLmUV11-86" value="varchar comment" style="text;html=1;strokeColor=none;fillColor=none;spacingLeft=4;spacingRight=4;whiteSpace=wrap;overflow=hidden;rotatable=0;points=[[0,0.5],[1,0.5]];portConstraint=eastwest;" vertex="1" parent="7QoOAAo-u6qLjZLmUV11-3">
          <mxGeometry y="230" width="160" height="26" as="geometry" />
        </mxCell>
        <mxCell id="7QoOAAo-u6qLjZLmUV11-14" value="accounts_addresses" style="swimlane;html=1;fontStyle=0;childLayout=stackLayout;horizontal=1;startSize=26;fillColor=#e0e0e0;horizontalStack=0;resizeParent=1;resizeLast=0;collapsible=1;marginBottom=0;swimlaneFillColor=#ffffff;align=center;rounded=1;shadow=0;comic=0;labelBackgroundColor=none;strokeWidth=1;fontFamily=Verdana;fontSize=12" vertex="1" parent="1">
          <mxGeometry x="580" y="-640" width="160" height="80" as="geometry" />
        </mxCell>
        <mxCell id="7QoOAAo-u6qLjZLmUV11-15" value="int account_id FK" style="text;html=1;strokeColor=none;fillColor=none;spacingLeft=4;spacingRight=4;whiteSpace=wrap;overflow=hidden;rotatable=0;points=[[0,0.5],[1,0.5]];portConstraint=eastwest;" vertex="1" parent="7QoOAAo-u6qLjZLmUV11-14">
          <mxGeometry y="26" width="160" height="26" as="geometry" />
        </mxCell>
        <mxCell id="7QoOAAo-u6qLjZLmUV11-16" value="int address_id FK" style="text;html=1;strokeColor=none;fillColor=none;spacingLeft=4;spacingRight=4;whiteSpace=wrap;overflow=hidden;rotatable=0;points=[[0,0.5],[1,0.5]];portConstraint=eastwest;" vertex="1" parent="7QoOAAo-u6qLjZLmUV11-14">
          <mxGeometry y="52" width="160" height="26" as="geometry" />
        </mxCell>
        <mxCell id="7QoOAAo-u6qLjZLmUV11-19" style="edgeStyle=orthogonalEdgeStyle;rounded=0;orthogonalLoop=1;jettySize=auto;html=1;exitX=1;exitY=0.5;exitDx=0;exitDy=0;entryX=0;entryY=0.5;entryDx=0;entryDy=0;" edge="1" parent="1" source="7QoOAAo-u6qLjZLmUV11-4" target="7QoOAAo-u6qLjZLmUV11-15">
          <mxGeometry relative="1" as="geometry" />
        </mxCell>
        <mxCell id="7QoOAAo-u6qLjZLmUV11-20" style="edgeStyle=orthogonalEdgeStyle;rounded=0;orthogonalLoop=1;jettySize=auto;html=1;exitX=1;exitY=0.5;exitDx=0;exitDy=0;entryX=0;entryY=0.5;entryDx=0;entryDy=0;" edge="1" parent="1" source="21ea969265ad0168-11" target="7QoOAAo-u6qLjZLmUV11-16">
          <mxGeometry relative="1" as="geometry" />
        </mxCell>
        <mxCell id="7QoOAAo-u6qLjZLmUV11-25" value="Если у аккаунта есть роль не только клиента, но и сотрудника" style="text;html=1;align=center;verticalAlign=middle;whiteSpace=wrap;rounded=0;" vertex="1" parent="1">
          <mxGeometry x="55" y="-140" width="190" height="30" as="geometry" />
        </mxCell>
        <mxCell id="7QoOAAo-u6qLjZLmUV11-26" value="restaurants" style="swimlane;html=1;fontStyle=0;childLayout=stackLayout;horizontal=1;startSize=26;fillColor=#e0e0e0;horizontalStack=0;resizeParent=1;resizeLast=0;collapsible=1;marginBottom=0;swimlaneFillColor=#ffffff;align=center;rounded=1;shadow=0;comic=0;labelBackgroundColor=none;strokeWidth=1;fontFamily=Verdana;fontSize=12" vertex="1" parent="1">
          <mxGeometry x="70" y="-360" width="160" height="110" as="geometry" />
        </mxCell>
        <mxCell id="7QoOAAo-u6qLjZLmUV11-27" value="int id PK" style="text;html=1;strokeColor=none;fillColor=none;spacingLeft=4;spacingRight=4;whiteSpace=wrap;overflow=hidden;rotatable=0;points=[[0,0.5],[1,0.5]];portConstraint=eastwest;" vertex="1" parent="7QoOAAo-u6qLjZLmUV11-26">
          <mxGeometry y="26" width="160" height="26" as="geometry" />
        </mxCell>
        <mxCell id="7QoOAAo-u6qLjZLmUV11-28" value="int address_id FK" style="text;html=1;strokeColor=none;fillColor=none;spacingLeft=4;spacingRight=4;whiteSpace=wrap;overflow=hidden;rotatable=0;points=[[0,0.5],[1,0.5]];portConstraint=eastwest;" vertex="1" parent="7QoOAAo-u6qLjZLmUV11-26">
          <mxGeometry y="52" width="160" height="26" as="geometry" />
        </mxCell>
        <mxCell id="7QoOAAo-u6qLjZLmUV11-32" value="varchar open_hours" style="text;html=1;strokeColor=none;fillColor=none;spacingLeft=4;spacingRight=4;whiteSpace=wrap;overflow=hidden;rotatable=0;points=[[0,0.5],[1,0.5]];portConstraint=eastwest;" vertex="1" parent="7QoOAAo-u6qLjZLmUV11-26">
          <mxGeometry y="78" width="160" height="22" as="geometry" />
        </mxCell>
        <mxCell id="7QoOAAo-u6qLjZLmUV11-30" style="edgeStyle=orthogonalEdgeStyle;rounded=0;orthogonalLoop=1;jettySize=auto;html=1;exitX=1;exitY=0.5;exitDx=0;exitDy=0;entryX=0;entryY=0.5;entryDx=0;entryDy=0;" edge="1" parent="1" source="7QoOAAo-u6qLjZLmUV11-28" target="7QoOAAo-u6qLjZLmUV11-4">
          <mxGeometry relative="1" as="geometry" />
        </mxCell>
        <mxCell id="7QoOAAo-u6qLjZLmUV11-31" style="edgeStyle=orthogonalEdgeStyle;rounded=0;orthogonalLoop=1;jettySize=auto;html=1;exitX=0;exitY=0.5;exitDx=0;exitDy=0;entryX=0;entryY=0.5;entryDx=0;entryDy=0;" edge="1" parent="1" source="7QoOAAo-u6qLjZLmUV11-24" target="7QoOAAo-u6qLjZLmUV11-27">
          <mxGeometry relative="1" as="geometry" />
        </mxCell>
        <mxCell id="7QoOAAo-u6qLjZLmUV11-36" value="accounts_roles" style="swimlane;html=1;fontStyle=0;childLayout=stackLayout;horizontal=1;startSize=26;fillColor=#e0e0e0;horizontalStack=0;resizeParent=1;resizeLast=0;collapsible=1;marginBottom=0;swimlaneFillColor=#ffffff;align=center;rounded=1;shadow=0;comic=0;labelBackgroundColor=none;strokeWidth=1;fontFamily=Verdana;fontSize=12" vertex="1" parent="1">
          <mxGeometry x="620" y="-540" width="160" height="80" as="geometry" />
        </mxCell>
        <mxCell id="7QoOAAo-u6qLjZLmUV11-37" value="int account_id FK" style="text;html=1;strokeColor=none;fillColor=none;spacingLeft=4;spacingRight=4;whiteSpace=wrap;overflow=hidden;rotatable=0;points=[[0,0.5],[1,0.5]];portConstraint=eastwest;" vertex="1" parent="7QoOAAo-u6qLjZLmUV11-36">
          <mxGeometry y="26" width="160" height="26" as="geometry" />
        </mxCell>
        <mxCell id="7QoOAAo-u6qLjZLmUV11-38" value="int role_id FK" style="text;html=1;strokeColor=none;fillColor=none;spacingLeft=4;spacingRight=4;whiteSpace=wrap;overflow=hidden;rotatable=0;points=[[0,0.5],[1,0.5]];portConstraint=eastwest;" vertex="1" parent="7QoOAAo-u6qLjZLmUV11-36">
          <mxGeometry y="52" width="160" height="26" as="geometry" />
        </mxCell>
        <mxCell id="7QoOAAo-u6qLjZLmUV11-39" style="edgeStyle=orthogonalEdgeStyle;rounded=0;orthogonalLoop=1;jettySize=auto;html=1;exitX=1;exitY=0.5;exitDx=0;exitDy=0;entryX=0;entryY=0.5;entryDx=0;entryDy=0;" edge="1" parent="1" source="21ea969265ad0168-11" target="7QoOAAo-u6qLjZLmUV11-37">
          <mxGeometry relative="1" as="geometry" />
        </mxCell>
        <mxCell id="7QoOAAo-u6qLjZLmUV11-40" value="roles" style="swimlane;html=1;fontStyle=0;childLayout=stackLayout;horizontal=1;startSize=26;fillColor=#e0e0e0;horizontalStack=0;resizeParent=1;resizeLast=0;collapsible=1;marginBottom=0;swimlaneFillColor=#ffffff;align=center;rounded=1;shadow=0;comic=0;labelBackgroundColor=none;strokeWidth=1;fontFamily=Verdana;fontSize=12" vertex="1" parent="1">
          <mxGeometry x="610" y="-425" width="160" height="80" as="geometry" />
        </mxCell>
        <mxCell id="7QoOAAo-u6qLjZLmUV11-41" value="int id PK" style="text;html=1;strokeColor=none;fillColor=none;spacingLeft=4;spacingRight=4;whiteSpace=wrap;overflow=hidden;rotatable=0;points=[[0,0.5],[1,0.5]];portConstraint=eastwest;" vertex="1" parent="7QoOAAo-u6qLjZLmUV11-40">
          <mxGeometry y="26" width="160" height="26" as="geometry" />
        </mxCell>
        <mxCell id="7QoOAAo-u6qLjZLmUV11-42" value="varchar name" style="text;html=1;strokeColor=none;fillColor=none;spacingLeft=4;spacingRight=4;whiteSpace=wrap;overflow=hidden;rotatable=0;points=[[0,0.5],[1,0.5]];portConstraint=eastwest;" vertex="1" parent="7QoOAAo-u6qLjZLmUV11-40">
          <mxGeometry y="52" width="160" height="26" as="geometry" />
        </mxCell>
        <mxCell id="7QoOAAo-u6qLjZLmUV11-43" style="edgeStyle=orthogonalEdgeStyle;rounded=0;orthogonalLoop=1;jettySize=auto;html=1;exitX=1;exitY=0.5;exitDx=0;exitDy=0;entryX=1;entryY=0.5;entryDx=0;entryDy=0;" edge="1" parent="1" source="7QoOAAo-u6qLjZLmUV11-41" target="7QoOAAo-u6qLjZLmUV11-38">
          <mxGeometry relative="1" as="geometry" />
        </mxCell>
        <mxCell id="7QoOAAo-u6qLjZLmUV11-45" value="feedbacks" style="swimlane;html=1;fontStyle=0;childLayout=stackLayout;horizontal=1;startSize=26;fillColor=#e0e0e0;horizontalStack=0;resizeParent=1;resizeLast=0;collapsible=1;marginBottom=0;swimlaneFillColor=#ffffff;align=center;rounded=1;shadow=0;comic=0;labelBackgroundColor=none;strokeWidth=1;fontFamily=Verdana;fontSize=12" vertex="1" parent="1">
          <mxGeometry x="560" y="-850" width="160" height="176" as="geometry" />
        </mxCell>
        <mxCell id="7QoOAAo-u6qLjZLmUV11-46" value="int id PK" style="text;html=1;strokeColor=none;fillColor=none;spacingLeft=4;spacingRight=4;whiteSpace=wrap;overflow=hidden;rotatable=0;points=[[0,0.5],[1,0.5]];portConstraint=eastwest;" vertex="1" parent="7QoOAAo-u6qLjZLmUV11-45">
          <mxGeometry y="26" width="160" height="26" as="geometry" />
        </mxCell>
        <mxCell id="7QoOAAo-u6qLjZLmUV11-99" value="int account_id FK" style="text;html=1;strokeColor=none;fillColor=none;spacingLeft=4;spacingRight=4;whiteSpace=wrap;overflow=hidden;rotatable=0;points=[[0,0.5],[1,0.5]];portConstraint=eastwest;" vertex="1" parent="7QoOAAo-u6qLjZLmUV11-45">
          <mxGeometry y="52" width="160" height="26" as="geometry" />
        </mxCell>
        <mxCell id="7QoOAAo-u6qLjZLmUV11-104" value="int order_id FK" style="text;html=1;strokeColor=none;fillColor=none;spacingLeft=4;spacingRight=4;whiteSpace=wrap;overflow=hidden;rotatable=0;points=[[0,0.5],[1,0.5]];portConstraint=eastwest;" vertex="1" parent="7QoOAAo-u6qLjZLmUV11-45">
          <mxGeometry y="78" width="160" height="26" as="geometry" />
        </mxCell>
        <mxCell id="7QoOAAo-u6qLjZLmUV11-48" value="int score" style="text;html=1;strokeColor=none;fillColor=none;spacingLeft=4;spacingRight=4;whiteSpace=wrap;overflow=hidden;rotatable=0;points=[[0,0.5],[1,0.5]];portConstraint=eastwest;" vertex="1" parent="7QoOAAo-u6qLjZLmUV11-45">
          <mxGeometry y="104" width="160" height="18" as="geometry" />
        </mxCell>
        <mxCell id="7QoOAAo-u6qLjZLmUV11-47" value="varchar comment" style="text;html=1;strokeColor=none;fillColor=none;spacingLeft=4;spacingRight=4;whiteSpace=wrap;overflow=hidden;rotatable=0;points=[[0,0.5],[1,0.5]];portConstraint=eastwest;" vertex="1" parent="7QoOAAo-u6qLjZLmUV11-45">
          <mxGeometry y="122" width="160" height="20" as="geometry" />
        </mxCell>
        <mxCell id="7QoOAAo-u6qLjZLmUV11-49" value="timestamp created" style="text;html=1;strokeColor=none;fillColor=none;spacingLeft=4;spacingRight=4;whiteSpace=wrap;overflow=hidden;rotatable=0;points=[[0,0.5],[1,0.5]];portConstraint=eastwest;" vertex="1" parent="7QoOAAo-u6qLjZLmUV11-45">
          <mxGeometry y="142" width="160" height="34" as="geometry" />
        </mxCell>
        <mxCell id="7QoOAAo-u6qLjZLmUV11-50" value="pizzas" style="swimlane;html=1;fontStyle=0;childLayout=stackLayout;horizontal=1;startSize=26;fillColor=#e0e0e0;horizontalStack=0;resizeParent=1;resizeLast=0;collapsible=1;marginBottom=0;swimlaneFillColor=#ffffff;align=center;rounded=1;shadow=0;comic=0;labelBackgroundColor=none;strokeWidth=1;fontFamily=Verdana;fontSize=12" vertex="1" parent="1">
          <mxGeometry x="70" y="-650" width="160" height="130" as="geometry" />
        </mxCell>
        <mxCell id="7QoOAAo-u6qLjZLmUV11-51" value="int id PK" style="text;html=1;strokeColor=none;fillColor=none;spacingLeft=4;spacingRight=4;whiteSpace=wrap;overflow=hidden;rotatable=0;points=[[0,0.5],[1,0.5]];portConstraint=eastwest;" vertex="1" parent="7QoOAAo-u6qLjZLmUV11-50">
          <mxGeometry y="26" width="160" height="26" as="geometry" />
        </mxCell>
        <mxCell id="7QoOAAo-u6qLjZLmUV11-52" value="varchar name" style="text;html=1;strokeColor=none;fillColor=none;spacingLeft=4;spacingRight=4;whiteSpace=wrap;overflow=hidden;rotatable=0;points=[[0,0.5],[1,0.5]];portConstraint=eastwest;" vertex="1" parent="7QoOAAo-u6qLjZLmUV11-50">
          <mxGeometry y="52" width="160" height="26" as="geometry" />
        </mxCell>
        <mxCell id="7QoOAAo-u6qLjZLmUV11-53" value="varchar size" style="text;html=1;strokeColor=none;fillColor=none;spacingLeft=4;spacingRight=4;whiteSpace=wrap;overflow=hidden;rotatable=0;points=[[0,0.5],[1,0.5]];portConstraint=eastwest;" vertex="1" parent="7QoOAAo-u6qLjZLmUV11-50">
          <mxGeometry y="78" width="160" height="26" as="geometry" />
        </mxCell>
        <mxCell id="7QoOAAo-u6qLjZLmUV11-54" value="double price" style="text;html=1;strokeColor=none;fillColor=none;spacingLeft=4;spacingRight=4;whiteSpace=wrap;overflow=hidden;rotatable=0;points=[[0,0.5],[1,0.5]];portConstraint=eastwest;" vertex="1" parent="7QoOAAo-u6qLjZLmUV11-50">
          <mxGeometry y="104" width="160" height="26" as="geometry" />
        </mxCell>
        <mxCell id="7QoOAAo-u6qLjZLmUV11-56" value="ingridients" style="swimlane;html=1;fontStyle=0;childLayout=stackLayout;horizontal=1;startSize=26;fillColor=#e0e0e0;horizontalStack=0;resizeParent=1;resizeLast=0;collapsible=1;marginBottom=0;swimlaneFillColor=#ffffff;align=center;rounded=1;shadow=0;comic=0;labelBackgroundColor=none;strokeWidth=1;fontFamily=Verdana;fontSize=12" vertex="1" parent="1">
          <mxGeometry x="70" y="-486" width="160" height="80" as="geometry" />
        </mxCell>
        <mxCell id="7QoOAAo-u6qLjZLmUV11-57" value="int id PK" style="text;html=1;strokeColor=none;fillColor=none;spacingLeft=4;spacingRight=4;whiteSpace=wrap;overflow=hidden;rotatable=0;points=[[0,0.5],[1,0.5]];portConstraint=eastwest;" vertex="1" parent="7QoOAAo-u6qLjZLmUV11-56">
          <mxGeometry y="26" width="160" height="26" as="geometry" />
        </mxCell>
        <mxCell id="7QoOAAo-u6qLjZLmUV11-58" value="varchar name" style="text;html=1;strokeColor=none;fillColor=none;spacingLeft=4;spacingRight=4;whiteSpace=wrap;overflow=hidden;rotatable=0;points=[[0,0.5],[1,0.5]];portConstraint=eastwest;" vertex="1" parent="7QoOAAo-u6qLjZLmUV11-56">
          <mxGeometry y="52" width="160" height="26" as="geometry" />
        </mxCell>
        <mxCell id="7QoOAAo-u6qLjZLmUV11-61" value="pizzas_ingridients" style="swimlane;html=1;fontStyle=0;childLayout=stackLayout;horizontal=1;startSize=26;fillColor=#e0e0e0;horizontalStack=0;resizeParent=1;resizeLast=0;collapsible=1;marginBottom=0;swimlaneFillColor=#ffffff;align=center;rounded=1;shadow=0;comic=0;labelBackgroundColor=none;strokeWidth=1;fontFamily=Verdana;fontSize=12" vertex="1" parent="1">
          <mxGeometry x="70" y="-750" width="160" height="80" as="geometry" />
        </mxCell>
        <mxCell id="7QoOAAo-u6qLjZLmUV11-62" value="int pizza_id FK" style="text;html=1;strokeColor=none;fillColor=none;spacingLeft=4;spacingRight=4;whiteSpace=wrap;overflow=hidden;rotatable=0;points=[[0,0.5],[1,0.5]];portConstraint=eastwest;" vertex="1" parent="7QoOAAo-u6qLjZLmUV11-61">
          <mxGeometry y="26" width="160" height="26" as="geometry" />
        </mxCell>
        <mxCell id="7QoOAAo-u6qLjZLmUV11-63" value="int ingridient_id FK" style="text;html=1;strokeColor=none;fillColor=none;spacingLeft=4;spacingRight=4;whiteSpace=wrap;overflow=hidden;rotatable=0;points=[[0,0.5],[1,0.5]];portConstraint=eastwest;" vertex="1" parent="7QoOAAo-u6qLjZLmUV11-61">
          <mxGeometry y="52" width="160" height="26" as="geometry" />
        </mxCell>
        <mxCell id="7QoOAAo-u6qLjZLmUV11-65" style="edgeStyle=orthogonalEdgeStyle;rounded=0;orthogonalLoop=1;jettySize=auto;html=1;entryX=1;entryY=0.5;entryDx=0;entryDy=0;exitX=1;exitY=0.5;exitDx=0;exitDy=0;" edge="1" parent="1" source="7QoOAAo-u6qLjZLmUV11-51" target="7QoOAAo-u6qLjZLmUV11-62">
          <mxGeometry relative="1" as="geometry">
            <mxPoint x="250" y="-610" as="sourcePoint" />
            <Array as="points">
              <mxPoint x="230" y="-610" />
              <mxPoint x="240" y="-610" />
              <mxPoint x="240" y="-711" />
            </Array>
          </mxGeometry>
        </mxCell>
        <mxCell id="7QoOAAo-u6qLjZLmUV11-66" style="edgeStyle=orthogonalEdgeStyle;rounded=0;orthogonalLoop=1;jettySize=auto;html=1;exitX=0;exitY=0.5;exitDx=0;exitDy=0;entryX=0;entryY=0.5;entryDx=0;entryDy=0;" edge="1" parent="1" source="7QoOAAo-u6qLjZLmUV11-57" target="7QoOAAo-u6qLjZLmUV11-63">
          <mxGeometry relative="1" as="geometry" />
        </mxCell>
        <mxCell id="7QoOAAo-u6qLjZLmUV11-67" value="side_items" style="swimlane;html=1;fontStyle=0;childLayout=stackLayout;horizontal=1;startSize=26;fillColor=#e0e0e0;horizontalStack=0;resizeParent=1;resizeLast=0;collapsible=1;marginBottom=0;swimlaneFillColor=#ffffff;align=center;rounded=1;shadow=0;comic=0;labelBackgroundColor=none;strokeWidth=1;fontFamily=Verdana;fontSize=12" vertex="1" parent="1">
          <mxGeometry x="70" y="-890" width="160" height="110" as="geometry" />
        </mxCell>
        <mxCell id="7QoOAAo-u6qLjZLmUV11-68" value="int id PK" style="text;html=1;strokeColor=none;fillColor=none;spacingLeft=4;spacingRight=4;whiteSpace=wrap;overflow=hidden;rotatable=0;points=[[0,0.5],[1,0.5]];portConstraint=eastwest;" vertex="1" parent="7QoOAAo-u6qLjZLmUV11-67">
          <mxGeometry y="26" width="160" height="26" as="geometry" />
        </mxCell>
        <mxCell id="7QoOAAo-u6qLjZLmUV11-69" value="varchar name" style="text;html=1;strokeColor=none;fillColor=none;spacingLeft=4;spacingRight=4;whiteSpace=wrap;overflow=hidden;rotatable=0;points=[[0,0.5],[1,0.5]];portConstraint=eastwest;" vertex="1" parent="7QoOAAo-u6qLjZLmUV11-67">
          <mxGeometry y="52" width="160" height="26" as="geometry" />
        </mxCell>
        <mxCell id="7QoOAAo-u6qLjZLmUV11-70" value="double price" style="text;html=1;strokeColor=none;fillColor=none;spacingLeft=4;spacingRight=4;whiteSpace=wrap;overflow=hidden;rotatable=0;points=[[0,0.5],[1,0.5]];portConstraint=eastwest;" vertex="1" parent="7QoOAAo-u6qLjZLmUV11-67">
          <mxGeometry y="78" width="160" height="26" as="geometry" />
        </mxCell>
        <mxCell id="7QoOAAo-u6qLjZLmUV11-71" value="orders" style="swimlane;html=1;fontStyle=0;childLayout=stackLayout;horizontal=1;startSize=26;fillColor=#e0e0e0;horizontalStack=0;resizeParent=1;resizeLast=0;collapsible=1;marginBottom=0;swimlaneFillColor=#ffffff;align=center;rounded=1;shadow=0;comic=0;labelBackgroundColor=none;strokeWidth=1;fontFamily=Verdana;fontSize=12" vertex="1" parent="1">
          <mxGeometry x="270" y="-950" width="160" height="286" as="geometry" />
        </mxCell>
        <mxCell id="7QoOAAo-u6qLjZLmUV11-72" value="int id PK" style="text;html=1;strokeColor=none;fillColor=none;spacingLeft=4;spacingRight=4;whiteSpace=wrap;overflow=hidden;rotatable=0;points=[[0,0.5],[1,0.5]];portConstraint=eastwest;" vertex="1" parent="7QoOAAo-u6qLjZLmUV11-71">
          <mxGeometry y="26" width="160" height="26" as="geometry" />
        </mxCell>
        <mxCell id="7QoOAAo-u6qLjZLmUV11-73" value="int_account_id FK" style="text;html=1;strokeColor=none;fillColor=none;spacingLeft=4;spacingRight=4;whiteSpace=wrap;overflow=hidden;rotatable=0;points=[[0,0.5],[1,0.5]];portConstraint=eastwest;" vertex="1" parent="7QoOAAo-u6qLjZLmUV11-71">
          <mxGeometry y="52" width="160" height="26" as="geometry" />
        </mxCell>
        <mxCell id="7QoOAAo-u6qLjZLmUV11-101" value="int restaurant_id FK" style="text;html=1;strokeColor=none;fillColor=none;spacingLeft=4;spacingRight=4;whiteSpace=wrap;overflow=hidden;rotatable=0;points=[[0,0.5],[1,0.5]];portConstraint=eastwest;" vertex="1" parent="7QoOAAo-u6qLjZLmUV11-71">
          <mxGeometry y="78" width="160" height="26" as="geometry" />
        </mxCell>
        <mxCell id="7QoOAAo-u6qLjZLmUV11-74" value="boolean to_deliver" style="text;html=1;strokeColor=none;fillColor=none;spacingLeft=4;spacingRight=4;whiteSpace=wrap;overflow=hidden;rotatable=0;points=[[0,0.5],[1,0.5]];portConstraint=eastwest;" vertex="1" parent="7QoOAAo-u6qLjZLmUV11-71">
          <mxGeometry y="104" width="160" height="26" as="geometry" />
        </mxCell>
        <mxCell id="7QoOAAo-u6qLjZLmUV11-75" value="int address_id" style="text;html=1;strokeColor=none;fillColor=none;spacingLeft=4;spacingRight=4;whiteSpace=wrap;overflow=hidden;rotatable=0;points=[[0,0.5],[1,0.5]];portConstraint=eastwest;" vertex="1" parent="7QoOAAo-u6qLjZLmUV11-71">
          <mxGeometry y="130" width="160" height="26" as="geometry" />
        </mxCell>
        <mxCell id="7QoOAAo-u6qLjZLmUV11-131" value="timestamp created" style="text;html=1;strokeColor=none;fillColor=none;spacingLeft=4;spacingRight=4;whiteSpace=wrap;overflow=hidden;rotatable=0;points=[[0,0.5],[1,0.5]];portConstraint=eastwest;" vertex="1" parent="7QoOAAo-u6qLjZLmUV11-71">
          <mxGeometry y="156" width="160" height="26" as="geometry" />
        </mxCell>
        <mxCell id="7QoOAAo-u6qLjZLmUV11-77" value="timestamp confirmed" style="text;html=1;strokeColor=none;fillColor=none;spacingLeft=4;spacingRight=4;whiteSpace=wrap;overflow=hidden;rotatable=0;points=[[0,0.5],[1,0.5]];portConstraint=eastwest;" vertex="1" parent="7QoOAAo-u6qLjZLmUV11-71">
          <mxGeometry y="182" width="160" height="26" as="geometry" />
        </mxCell>
        <mxCell id="7QoOAAo-u6qLjZLmUV11-78" value="timestamp&amp;nbsp;assembled" style="text;html=1;strokeColor=none;fillColor=none;spacingLeft=4;spacingRight=4;whiteSpace=wrap;overflow=hidden;rotatable=0;points=[[0,0.5],[1,0.5]];portConstraint=eastwest;" vertex="1" parent="7QoOAAo-u6qLjZLmUV11-71">
          <mxGeometry y="208" width="160" height="26" as="geometry" />
        </mxCell>
        <mxCell id="7QoOAAo-u6qLjZLmUV11-79" value="timestamp&amp;nbsp;delivered" style="text;html=1;strokeColor=none;fillColor=none;spacingLeft=4;spacingRight=4;whiteSpace=wrap;overflow=hidden;rotatable=0;points=[[0,0.5],[1,0.5]];portConstraint=eastwest;" vertex="1" parent="7QoOAAo-u6qLjZLmUV11-71">
          <mxGeometry y="234" width="160" height="26" as="geometry" />
        </mxCell>
        <mxCell id="7QoOAAo-u6qLjZLmUV11-85" value="varchar comment" style="text;html=1;strokeColor=none;fillColor=none;spacingLeft=4;spacingRight=4;whiteSpace=wrap;overflow=hidden;rotatable=0;points=[[0,0.5],[1,0.5]];portConstraint=eastwest;" vertex="1" parent="7QoOAAo-u6qLjZLmUV11-71">
          <mxGeometry y="260" width="160" height="26" as="geometry" />
        </mxCell>
        <mxCell id="7QoOAAo-u6qLjZLmUV11-80" style="edgeStyle=orthogonalEdgeStyle;rounded=0;orthogonalLoop=1;jettySize=auto;html=1;exitX=1;exitY=0.5;exitDx=0;exitDy=0;entryX=1;entryY=0.5;entryDx=0;entryDy=0;" edge="1" parent="1" source="21ea969265ad0168-11" target="7QoOAAo-u6qLjZLmUV11-73">
          <mxGeometry relative="1" as="geometry" />
        </mxCell>
        <mxCell id="7QoOAAo-u6qLjZLmUV11-84" style="edgeStyle=orthogonalEdgeStyle;rounded=0;orthogonalLoop=1;jettySize=auto;html=1;exitX=1;exitY=0.5;exitDx=0;exitDy=0;entryX=1;entryY=0.5;entryDx=0;entryDy=0;" edge="1" parent="1" source="7QoOAAo-u6qLjZLmUV11-4" target="7QoOAAo-u6qLjZLmUV11-75">
          <mxGeometry relative="1" as="geometry">
            <Array as="points">
              <mxPoint x="430" y="-620" />
              <mxPoint x="490" y="-620" />
              <mxPoint x="490" y="-787" />
            </Array>
          </mxGeometry>
        </mxCell>
        <mxCell id="7QoOAAo-u6qLjZLmUV11-87" value="orders_pizzas" style="swimlane;html=1;fontStyle=0;childLayout=stackLayout;horizontal=1;startSize=26;fillColor=#e0e0e0;horizontalStack=0;resizeParent=1;resizeLast=0;collapsible=1;marginBottom=0;swimlaneFillColor=#ffffff;align=center;rounded=1;shadow=0;comic=0;labelBackgroundColor=none;strokeWidth=1;fontFamily=Verdana;fontSize=12" vertex="1" parent="1">
          <mxGeometry x="270" y="-1100" width="160" height="80" as="geometry" />
        </mxCell>
        <mxCell id="7QoOAAo-u6qLjZLmUV11-88" value="int order_id FK" style="text;html=1;strokeColor=none;fillColor=none;spacingLeft=4;spacingRight=4;whiteSpace=wrap;overflow=hidden;rotatable=0;points=[[0,0.5],[1,0.5]];portConstraint=eastwest;" vertex="1" parent="7QoOAAo-u6qLjZLmUV11-87">
          <mxGeometry y="26" width="160" height="26" as="geometry" />
        </mxCell>
        <mxCell id="7QoOAAo-u6qLjZLmUV11-89" value="int pizza_id FK" style="text;html=1;strokeColor=none;fillColor=none;spacingLeft=4;spacingRight=4;whiteSpace=wrap;overflow=hidden;rotatable=0;points=[[0,0.5],[1,0.5]];portConstraint=eastwest;" vertex="1" parent="7QoOAAo-u6qLjZLmUV11-87">
          <mxGeometry y="52" width="160" height="26" as="geometry" />
        </mxCell>
        <mxCell id="7QoOAAo-u6qLjZLmUV11-91" style="edgeStyle=orthogonalEdgeStyle;rounded=0;orthogonalLoop=1;jettySize=auto;html=1;exitX=0;exitY=0.5;exitDx=0;exitDy=0;entryX=0;entryY=0.5;entryDx=0;entryDy=0;" edge="1" parent="1" source="7QoOAAo-u6qLjZLmUV11-51" target="7QoOAAo-u6qLjZLmUV11-89">
          <mxGeometry relative="1" as="geometry">
            <Array as="points">
              <mxPoint x="10" y="-611" />
              <mxPoint x="10" y="-1040" />
              <mxPoint x="240" y="-1040" />
              <mxPoint x="240" y="-1035" />
            </Array>
          </mxGeometry>
        </mxCell>
        <mxCell id="7QoOAAo-u6qLjZLmUV11-92" style="edgeStyle=orthogonalEdgeStyle;rounded=0;orthogonalLoop=1;jettySize=auto;html=1;exitX=1;exitY=0.5;exitDx=0;exitDy=0;entryX=1;entryY=0.5;entryDx=0;entryDy=0;" edge="1" parent="1" source="7QoOAAo-u6qLjZLmUV11-72" target="7QoOAAo-u6qLjZLmUV11-88">
          <mxGeometry relative="1" as="geometry">
            <Array as="points">
              <mxPoint x="430" y="-900" />
              <mxPoint x="450" y="-900" />
              <mxPoint x="450" y="-1061" />
            </Array>
          </mxGeometry>
        </mxCell>
        <mxCell id="7QoOAAo-u6qLjZLmUV11-93" value="orders_side_items" style="swimlane;html=1;fontStyle=0;childLayout=stackLayout;horizontal=1;startSize=26;fillColor=#e0e0e0;horizontalStack=0;resizeParent=1;resizeLast=0;collapsible=1;marginBottom=0;swimlaneFillColor=#ffffff;align=center;rounded=1;shadow=0;comic=0;labelBackgroundColor=none;strokeWidth=1;fontFamily=Verdana;fontSize=12" vertex="1" parent="1">
          <mxGeometry x="70" y="-1020" width="160" height="80" as="geometry" />
        </mxCell>
        <mxCell id="7QoOAAo-u6qLjZLmUV11-94" value="int order_id FK" style="text;html=1;strokeColor=none;fillColor=none;spacingLeft=4;spacingRight=4;whiteSpace=wrap;overflow=hidden;rotatable=0;points=[[0,0.5],[1,0.5]];portConstraint=eastwest;" vertex="1" parent="7QoOAAo-u6qLjZLmUV11-93">
          <mxGeometry y="26" width="160" height="26" as="geometry" />
        </mxCell>
        <mxCell id="7QoOAAo-u6qLjZLmUV11-95" value="int side_item_id FK" style="text;html=1;strokeColor=none;fillColor=none;spacingLeft=4;spacingRight=4;whiteSpace=wrap;overflow=hidden;rotatable=0;points=[[0,0.5],[1,0.5]];portConstraint=eastwest;" vertex="1" parent="7QoOAAo-u6qLjZLmUV11-93">
          <mxGeometry y="52" width="160" height="26" as="geometry" />
        </mxCell>
        <mxCell id="7QoOAAo-u6qLjZLmUV11-97" style="edgeStyle=orthogonalEdgeStyle;rounded=0;orthogonalLoop=1;jettySize=auto;html=1;exitX=0;exitY=0.5;exitDx=0;exitDy=0;entryX=0;entryY=0.5;entryDx=0;entryDy=0;" edge="1" parent="1" source="7QoOAAo-u6qLjZLmUV11-68" target="7QoOAAo-u6qLjZLmUV11-95">
          <mxGeometry relative="1" as="geometry" />
        </mxCell>
        <mxCell id="7QoOAAo-u6qLjZLmUV11-98" style="edgeStyle=orthogonalEdgeStyle;rounded=0;orthogonalLoop=1;jettySize=auto;html=1;exitX=0;exitY=0.5;exitDx=0;exitDy=0;entryX=1;entryY=0.5;entryDx=0;entryDy=0;" edge="1" parent="1" source="7QoOAAo-u6qLjZLmUV11-72" target="7QoOAAo-u6qLjZLmUV11-94">
          <mxGeometry relative="1" as="geometry" />
        </mxCell>
        <mxCell id="7QoOAAo-u6qLjZLmUV11-100" style="edgeStyle=orthogonalEdgeStyle;rounded=0;orthogonalLoop=1;jettySize=auto;html=1;exitX=1;exitY=0.5;exitDx=0;exitDy=0;entryX=1;entryY=0.5;entryDx=0;entryDy=0;" edge="1" parent="1" source="21ea969265ad0168-11" target="7QoOAAo-u6qLjZLmUV11-99">
          <mxGeometry relative="1" as="geometry">
            <Array as="points">
              <mxPoint x="810" y="-291" />
              <mxPoint x="810" y="-785" />
            </Array>
          </mxGeometry>
        </mxCell>
        <mxCell id="7QoOAAo-u6qLjZLmUV11-103" style="edgeStyle=orthogonalEdgeStyle;rounded=0;orthogonalLoop=1;jettySize=auto;html=1;exitX=1;exitY=0.5;exitDx=0;exitDy=0;" edge="1" parent="1" source="7QoOAAo-u6qLjZLmUV11-27" target="7QoOAAo-u6qLjZLmUV11-101">
          <mxGeometry relative="1" as="geometry">
            <Array as="points">
              <mxPoint x="260" y="-321" />
              <mxPoint x="260" y="-859" />
            </Array>
          </mxGeometry>
        </mxCell>
        <mxCell id="7QoOAAo-u6qLjZLmUV11-105" style="edgeStyle=orthogonalEdgeStyle;rounded=0;orthogonalLoop=1;jettySize=auto;html=1;exitX=0;exitY=0.5;exitDx=0;exitDy=0;entryX=1;entryY=0.5;entryDx=0;entryDy=0;" edge="1" parent="1" source="7QoOAAo-u6qLjZLmUV11-104" target="7QoOAAo-u6qLjZLmUV11-72">
          <mxGeometry relative="1" as="geometry" />
        </mxCell>
        <mxCell id="7QoOAAo-u6qLjZLmUV11-114" value="Client (account not active)" style="shape=umlActor;verticalLabelPosition=bottom;verticalAlign=top;html=1;outlineConnect=0;" vertex="1" parent="1">
          <mxGeometry x="135" y="-1430" width="30" height="60" as="geometry" />
        </mxCell>
        <mxCell id="7QoOAAo-u6qLjZLmUV11-115" value="Размещать (created) заказы из имеющихся пицц&amp;nbsp; и доп позиций в ресторане или с доставкой на адрес (новый или один из указанных ранее)" style="text;html=1;align=center;verticalAlign=middle;whiteSpace=wrap;rounded=0;" vertex="1" parent="1">
          <mxGeometry x="260" y="-1470" width="230" height="74" as="geometry" />
        </mxCell>
        <mxCell id="7QoOAAo-u6qLjZLmUV11-116" value="Собирать для своего заказа пиццу из ингридиентов" style="text;html=1;align=center;verticalAlign=middle;whiteSpace=wrap;rounded=0;" vertex="1" parent="1">
          <mxGeometry x="260" y="-1396" width="215" height="36" as="geometry" />
        </mxCell>
        <mxCell id="7QoOAAo-u6qLjZLmUV11-117" value="" style="endArrow=classic;html=1;rounded=0;entryX=0;entryY=0.75;entryDx=0;entryDy=0;" edge="1" parent="1" source="7QoOAAo-u6qLjZLmUV11-114" target="7QoOAAo-u6qLjZLmUV11-116">
          <mxGeometry width="50" height="50" relative="1" as="geometry">
            <mxPoint x="540" y="-1390" as="sourcePoint" />
            <mxPoint x="590" y="-1440" as="targetPoint" />
          </mxGeometry>
        </mxCell>
        <mxCell id="7QoOAAo-u6qLjZLmUV11-118" value="" style="endArrow=classic;html=1;rounded=0;" edge="1" parent="1" source="7QoOAAo-u6qLjZLmUV11-114">
          <mxGeometry width="50" height="50" relative="1" as="geometry">
            <mxPoint x="70" y="-1410" as="sourcePoint" />
            <mxPoint x="250" y="-1430" as="targetPoint" />
          </mxGeometry>
        </mxCell>
        <mxCell id="7QoOAAo-u6qLjZLmUV11-119" value="Client (account active)" style="shape=umlActor;verticalLabelPosition=bottom;verticalAlign=top;html=1;outlineConnect=0;" vertex="1" parent="1">
          <mxGeometry x="120" y="-1280" width="30" height="60" as="geometry" />
        </mxCell>
        <mxCell id="7QoOAAo-u6qLjZLmUV11-120" value="весь функционал до активации" style="text;html=1;align=center;verticalAlign=middle;whiteSpace=wrap;rounded=0;" vertex="1" parent="1">
          <mxGeometry x="245" y="-1320" width="230" height="74" as="geometry" />
        </mxCell>
        <mxCell id="7QoOAAo-u6qLjZLmUV11-121" value="оставлять отзывы о заказе" style="text;html=1;align=center;verticalAlign=middle;whiteSpace=wrap;rounded=0;" vertex="1" parent="1">
          <mxGeometry x="245" y="-1246" width="215" height="36" as="geometry" />
        </mxCell>
        <mxCell id="7QoOAAo-u6qLjZLmUV11-122" value="" style="endArrow=classic;html=1;rounded=0;entryX=0;entryY=0.75;entryDx=0;entryDy=0;" edge="1" parent="1" source="7QoOAAo-u6qLjZLmUV11-119" target="7QoOAAo-u6qLjZLmUV11-121">
          <mxGeometry width="50" height="50" relative="1" as="geometry">
            <mxPoint x="525" y="-1240" as="sourcePoint" />
            <mxPoint x="575" y="-1290" as="targetPoint" />
          </mxGeometry>
        </mxCell>
        <mxCell id="7QoOAAo-u6qLjZLmUV11-123" value="" style="endArrow=classic;html=1;rounded=0;" edge="1" parent="1" source="7QoOAAo-u6qLjZLmUV11-119">
          <mxGeometry width="50" height="50" relative="1" as="geometry">
            <mxPoint x="55" y="-1260" as="sourcePoint" />
            <mxPoint x="235" y="-1280" as="targetPoint" />
          </mxGeometry>
        </mxCell>
        <mxCell id="7QoOAAo-u6qLjZLmUV11-124" value="накапливать бонусные очки для частичной оплаты будущих заказов" style="text;html=1;align=center;verticalAlign=middle;whiteSpace=wrap;rounded=0;" vertex="1" parent="1">
          <mxGeometry x="260" y="-1200" width="215" height="36" as="geometry" />
        </mxCell>
        <mxCell id="7QoOAAo-u6qLjZLmUV11-125" value="" style="endArrow=classic;html=1;rounded=0;entryX=0;entryY=0.25;entryDx=0;entryDy=0;" edge="1" parent="1" source="7QoOAAo-u6qLjZLmUV11-119" target="7QoOAAo-u6qLjZLmUV11-124">
          <mxGeometry width="50" height="50" relative="1" as="geometry">
            <mxPoint x="540" y="-1310" as="sourcePoint" />
            <mxPoint x="590" y="-1360" as="targetPoint" />
          </mxGeometry>
        </mxCell>
        <mxCell id="7QoOAAo-u6qLjZLmUV11-126" value="Call_operator" style="shape=umlActor;verticalLabelPosition=bottom;verticalAlign=top;html=1;outlineConnect=0;" vertex="1" parent="1">
          <mxGeometry x="550" y="-1440" width="30" height="60" as="geometry" />
        </mxCell>
        <mxCell id="7QoOAAo-u6qLjZLmUV11-127" value="весь функционал клиента" style="text;html=1;align=center;verticalAlign=middle;whiteSpace=wrap;rounded=0;" vertex="1" parent="1">
          <mxGeometry x="630" y="-1500" width="230" height="74" as="geometry" />
        </mxCell>
        <mxCell id="7QoOAAo-u6qLjZLmUV11-128" value="" style="endArrow=classic;html=1;rounded=0;" edge="1" parent="1">
          <mxGeometry width="50" height="50" relative="1" as="geometry">
            <mxPoint x="580" y="-1435" as="sourcePoint" />
            <mxPoint x="665" y="-1460" as="targetPoint" />
          </mxGeometry>
        </mxCell>
        <mxCell id="7QoOAAo-u6qLjZLmUV11-129" value="подтверждать размещённые заказы (confirmed)" style="text;html=1;align=center;verticalAlign=middle;whiteSpace=wrap;rounded=0;" vertex="1" parent="1">
          <mxGeometry x="650" y="-1396" width="215" height="36" as="geometry" />
        </mxCell>
        <mxCell id="7QoOAAo-u6qLjZLmUV11-130" value="" style="endArrow=classic;html=1;rounded=0;entryX=0;entryY=0.75;entryDx=0;entryDy=0;" edge="1" parent="1" target="7QoOAAo-u6qLjZLmUV11-129">
          <mxGeometry width="50" height="50" relative="1" as="geometry">
            <mxPoint x="580" y="-1406" as="sourcePoint" />
            <mxPoint x="1005" y="-1450" as="targetPoint" />
          </mxGeometry>
        </mxCell>
        <mxCell id="7QoOAAo-u6qLjZLmUV11-132" value="Cook" style="shape=umlActor;verticalLabelPosition=bottom;verticalAlign=top;html=1;outlineConnect=0;" vertex="1" parent="1">
          <mxGeometry x="545" y="-1270" width="30" height="60" as="geometry" />
        </mxCell>
        <mxCell id="7QoOAAo-u6qLjZLmUV11-133" value="весь функционал клиента" style="text;html=1;align=center;verticalAlign=middle;whiteSpace=wrap;rounded=0;" vertex="1" parent="1">
          <mxGeometry x="625" y="-1330" width="230" height="74" as="geometry" />
        </mxCell>
        <mxCell id="7QoOAAo-u6qLjZLmUV11-134" value="" style="endArrow=classic;html=1;rounded=0;" edge="1" parent="1">
          <mxGeometry width="50" height="50" relative="1" as="geometry">
            <mxPoint x="575" y="-1265" as="sourcePoint" />
            <mxPoint x="660" y="-1290" as="targetPoint" />
          </mxGeometry>
        </mxCell>
        <mxCell id="7QoOAAo-u6qLjZLmUV11-135" value="отмечать подтверждённые заказы&amp;nbsp; как изготовленные (assembled)" style="text;html=1;align=center;verticalAlign=middle;whiteSpace=wrap;rounded=0;" vertex="1" parent="1">
          <mxGeometry x="645" y="-1226" width="215" height="36" as="geometry" />
        </mxCell>
        <mxCell id="7QoOAAo-u6qLjZLmUV11-136" value="" style="endArrow=classic;html=1;rounded=0;entryX=0;entryY=0.75;entryDx=0;entryDy=0;" edge="1" parent="1" target="7QoOAAo-u6qLjZLmUV11-135">
          <mxGeometry width="50" height="50" relative="1" as="geometry">
            <mxPoint x="575" y="-1236" as="sourcePoint" />
            <mxPoint x="1000" y="-1280" as="targetPoint" />
          </mxGeometry>
        </mxCell>
        <mxCell id="7QoOAAo-u6qLjZLmUV11-137" value="Deliveryman" style="shape=umlActor;verticalLabelPosition=bottom;verticalAlign=top;html=1;outlineConnect=0;" vertex="1" parent="1">
          <mxGeometry x="550" y="-1120" width="30" height="60" as="geometry" />
        </mxCell>
        <mxCell id="7QoOAAo-u6qLjZLmUV11-138" value="весь функционал клиента" style="text;html=1;align=center;verticalAlign=middle;whiteSpace=wrap;rounded=0;" vertex="1" parent="1">
          <mxGeometry x="630" y="-1180" width="230" height="74" as="geometry" />
        </mxCell>
        <mxCell id="7QoOAAo-u6qLjZLmUV11-139" value="" style="endArrow=classic;html=1;rounded=0;" edge="1" parent="1">
          <mxGeometry width="50" height="50" relative="1" as="geometry">
            <mxPoint x="580" y="-1115" as="sourcePoint" />
            <mxPoint x="665" y="-1140" as="targetPoint" />
          </mxGeometry>
        </mxCell>
        <mxCell id="7QoOAAo-u6qLjZLmUV11-140" value="отмечать изготовленные заказы c доставкой как отгруженные (deliveried)" style="text;html=1;align=center;verticalAlign=middle;whiteSpace=wrap;rounded=0;" vertex="1" parent="1">
          <mxGeometry x="650" y="-1076" width="215" height="36" as="geometry" />
        </mxCell>
        <mxCell id="7QoOAAo-u6qLjZLmUV11-141" value="" style="endArrow=classic;html=1;rounded=0;entryX=0;entryY=0.75;entryDx=0;entryDy=0;" edge="1" parent="1" target="7QoOAAo-u6qLjZLmUV11-140">
          <mxGeometry width="50" height="50" relative="1" as="geometry">
            <mxPoint x="580" y="-1086" as="sourcePoint" />
            <mxPoint x="1005" y="-1130" as="targetPoint" />
          </mxGeometry>
        </mxCell>
        <mxCell id="7QoOAAo-u6qLjZLmUV11-142" value="Waiter" style="shape=umlActor;verticalLabelPosition=bottom;verticalAlign=top;html=1;outlineConnect=0;" vertex="1" parent="1">
          <mxGeometry x="550" y="-980" width="30" height="60" as="geometry" />
        </mxCell>
        <mxCell id="7QoOAAo-u6qLjZLmUV11-143" value="весь функционал клиента" style="text;html=1;align=center;verticalAlign=middle;whiteSpace=wrap;rounded=0;" vertex="1" parent="1">
          <mxGeometry x="630" y="-1040" width="230" height="74" as="geometry" />
        </mxCell>
        <mxCell id="7QoOAAo-u6qLjZLmUV11-144" value="" style="endArrow=classic;html=1;rounded=0;" edge="1" parent="1">
          <mxGeometry width="50" height="50" relative="1" as="geometry">
            <mxPoint x="580" y="-975" as="sourcePoint" />
            <mxPoint x="665" y="-1000" as="targetPoint" />
          </mxGeometry>
        </mxCell>
        <mxCell id="7QoOAAo-u6qLjZLmUV11-145" value="отмечать изготовленные заказы в ресторане как отгруженные (deliveried)" style="text;html=1;align=center;verticalAlign=middle;whiteSpace=wrap;rounded=0;" vertex="1" parent="1">
          <mxGeometry x="650" y="-936" width="215" height="36" as="geometry" />
        </mxCell>
        <mxCell id="7QoOAAo-u6qLjZLmUV11-146" value="" style="endArrow=classic;html=1;rounded=0;entryX=0;entryY=0.75;entryDx=0;entryDy=0;" edge="1" parent="1" target="7QoOAAo-u6qLjZLmUV11-145">
          <mxGeometry width="50" height="50" relative="1" as="geometry">
            <mxPoint x="580" y="-946" as="sourcePoint" />
            <mxPoint x="1005" y="-990" as="targetPoint" />
          </mxGeometry>
        </mxCell>
        <mxCell id="7QoOAAo-u6qLjZLmUV11-147" value="CEO" style="shape=umlActor;verticalLabelPosition=bottom;verticalAlign=top;html=1;outlineConnect=0;" vertex="1" parent="1">
          <mxGeometry x="920" y="-1246" width="30" height="60" as="geometry" />
        </mxCell>
        <mxCell id="7QoOAAo-u6qLjZLmUV11-148" value="весь функционал клиента" style="text;html=1;align=center;verticalAlign=middle;whiteSpace=wrap;rounded=0;" vertex="1" parent="1">
          <mxGeometry x="990" y="-1510" width="230" height="74" as="geometry" />
        </mxCell>
        <mxCell id="7QoOAAo-u6qLjZLmUV11-149" value="" style="endArrow=classic;html=1;rounded=0;" edge="1" parent="1">
          <mxGeometry width="50" height="50" relative="1" as="geometry">
            <mxPoint x="940" y="-1445" as="sourcePoint" />
            <mxPoint x="1025" y="-1470" as="targetPoint" />
          </mxGeometry>
        </mxCell>
        <mxCell id="7QoOAAo-u6qLjZLmUV11-150" value="Читать отзывы и писать ответы на email автору отзыва" style="text;html=1;align=center;verticalAlign=middle;whiteSpace=wrap;rounded=0;" vertex="1" parent="1">
          <mxGeometry x="1010" y="-1406" width="215" height="36" as="geometry" />
        </mxCell>
        <mxCell id="7QoOAAo-u6qLjZLmUV11-151" value="" style="endArrow=classic;html=1;rounded=0;entryX=0;entryY=0.75;entryDx=0;entryDy=0;" edge="1" parent="1" target="7QoOAAo-u6qLjZLmUV11-150">
          <mxGeometry width="50" height="50" relative="1" as="geometry">
            <mxPoint x="940" y="-1416" as="sourcePoint" />
            <mxPoint x="1365" y="-1460" as="targetPoint" />
          </mxGeometry>
        </mxCell>
        <mxCell id="7QoOAAo-u6qLjZLmUV11-152" value="Менять цены в своем ресторане в обозначенных пределах" style="text;html=1;align=center;verticalAlign=middle;whiteSpace=wrap;rounded=0;" vertex="1" parent="1">
          <mxGeometry x="1010" y="-1442" width="215" height="36" as="geometry" />
        </mxCell>
        <mxCell id="7QoOAAo-u6qLjZLmUV11-153" value="" style="endArrow=classic;html=1;rounded=0;entryX=0;entryY=0.5;entryDx=0;entryDy=0;" edge="1" parent="1" target="7QoOAAo-u6qLjZLmUV11-152">
          <mxGeometry width="50" height="50" relative="1" as="geometry">
            <mxPoint x="940" y="-1420" as="sourcePoint" />
            <mxPoint x="990" y="-1470" as="targetPoint" />
          </mxGeometry>
        </mxCell>
        <mxCell id="7QoOAAo-u6qLjZLmUV11-154" value="Назначать, увольнять, менять должности сотрудников в своем ресторане кроме босса" style="text;html=1;align=center;verticalAlign=middle;whiteSpace=wrap;rounded=0;" vertex="1" parent="1">
          <mxGeometry x="960" y="-1356" width="215" height="36" as="geometry" />
        </mxCell>
        <mxCell id="7QoOAAo-u6qLjZLmUV11-155" value="" style="endArrow=classic;html=1;rounded=0;" edge="1" parent="1" source="7QoOAAo-u6qLjZLmUV11-158">
          <mxGeometry width="50" height="50" relative="1" as="geometry">
            <mxPoint x="810" y="-1360" as="sourcePoint" />
            <mxPoint x="1010" y="-1360" as="targetPoint" />
          </mxGeometry>
        </mxCell>
        <mxCell id="7QoOAAo-u6qLjZLmUV11-156" value="Получать информацию о ценах на пиццы в ресторанах конкурирующих сетей" style="text;html=1;align=center;verticalAlign=middle;whiteSpace=wrap;rounded=0;" vertex="1" parent="1">
          <mxGeometry x="900" y="-1306" width="240" height="36" as="geometry" />
        </mxCell>
        <mxCell id="7QoOAAo-u6qLjZLmUV11-157" value="" style="endArrow=classic;html=1;rounded=0;entryX=0.152;entryY=-0.011;entryDx=0;entryDy=0;entryPerimeter=0;" edge="1" parent="1" target="7QoOAAo-u6qLjZLmUV11-156">
          <mxGeometry width="50" height="50" relative="1" as="geometry">
            <mxPoint x="936" y="-1340" as="sourcePoint" />
            <mxPoint x="860" y="-1410" as="targetPoint" />
          </mxGeometry>
        </mxCell>
        <mxCell id="7QoOAAo-u6qLjZLmUV11-158" value="Restaurant_boss" style="shape=umlActor;verticalLabelPosition=bottom;verticalAlign=top;html=1;outlineConnect=0;" vertex="1" parent="1">
          <mxGeometry x="920" y="-1440" width="30" height="60" as="geometry" />
        </mxCell>
        <mxCell id="7QoOAAo-u6qLjZLmUV11-159" value="Создавать, удалять, изменять позиции в меню (в т.ч. рецептуру пицц)" style="text;html=1;align=center;verticalAlign=middle;whiteSpace=wrap;rounded=0;" vertex="1" parent="1">
          <mxGeometry x="1005" y="-1164" width="170" height="30" as="geometry" />
        </mxCell>
        <mxCell id="7QoOAAo-u6qLjZLmUV11-160" value="весь функционал босса" style="text;html=1;align=center;verticalAlign=middle;whiteSpace=wrap;rounded=0;" vertex="1" parent="1">
          <mxGeometry x="995" y="-1277" width="230" height="74" as="geometry" />
        </mxCell>
        <mxCell id="7QoOAAo-u6qLjZLmUV11-161" value="" style="endArrow=classic;html=1;rounded=0;" edge="1" parent="1">
          <mxGeometry width="50" height="50" relative="1" as="geometry">
            <mxPoint x="940" y="-1215" as="sourcePoint" />
            <mxPoint x="1025" y="-1240" as="targetPoint" />
          </mxGeometry>
        </mxCell>
        <mxCell id="7QoOAAo-u6qLjZLmUV11-162" value="Назначать, увольнять, менять должности боссов ресторанов" style="text;html=1;align=center;verticalAlign=middle;whiteSpace=wrap;rounded=0;" vertex="1" parent="1">
          <mxGeometry x="1010" y="-1216" width="215" height="36" as="geometry" />
        </mxCell>
        <mxCell id="7QoOAAo-u6qLjZLmUV11-163" value="" style="endArrow=classic;html=1;rounded=0;entryX=0;entryY=0.5;entryDx=0;entryDy=0;" edge="1" parent="1" target="7QoOAAo-u6qLjZLmUV11-162">
          <mxGeometry width="50" height="50" relative="1" as="geometry">
            <mxPoint x="950" y="-1210" as="sourcePoint" />
            <mxPoint x="1010" y="-1170" as="targetPoint" />
          </mxGeometry>
        </mxCell>
        <mxCell id="7QoOAAo-u6qLjZLmUV11-164" value="получать маршруты доставки (напр. яндекс карты)" style="text;html=1;align=center;verticalAlign=middle;whiteSpace=wrap;rounded=0;" vertex="1" parent="1">
          <mxGeometry x="650" y="-1120" width="215" height="36" as="geometry" />
        </mxCell>
        <mxCell id="7QoOAAo-u6qLjZLmUV11-165" value="" style="endArrow=classic;html=1;rounded=0;exitX=1;exitY=0.3333333333333333;exitDx=0;exitDy=0;exitPerimeter=0;entryX=0;entryY=0.5;entryDx=0;entryDy=0;" edge="1" parent="1" source="7QoOAAo-u6qLjZLmUV11-137" target="7QoOAAo-u6qLjZLmUV11-164">
          <mxGeometry width="50" height="50" relative="1" as="geometry">
            <mxPoint x="810" y="-1010" as="sourcePoint" />
            <mxPoint x="860" y="-1060" as="targetPoint" />
          </mxGeometry>
        </mxCell>
        <mxCell id="7QoOAAo-u6qLjZLmUV11-166" value="" style="endArrow=classic;html=1;rounded=0;entryX=0;entryY=0;entryDx=0;entryDy=0;" edge="1" parent="1" target="7QoOAAo-u6qLjZLmUV11-159">
          <mxGeometry width="50" height="50" relative="1" as="geometry">
            <mxPoint x="960" y="-1180" as="sourcePoint" />
            <mxPoint x="860" y="-1270" as="targetPoint" />
          </mxGeometry>
        </mxCell>
        <mxCell id="7QoOAAo-u6qLjZLmUV11-167" value="тратить бонусные очки для частичной оплаты заказов" style="text;html=1;align=center;verticalAlign=middle;whiteSpace=wrap;rounded=0;" vertex="1" parent="1">
          <mxGeometry x="55" y="-1156" width="215" height="36" as="geometry" />
        </mxCell>
        <mxCell id="7QoOAAo-u6qLjZLmUV11-168" value="" style="endArrow=classic;html=1;rounded=0;entryX=0.5;entryY=0;entryDx=0;entryDy=0;" edge="1" parent="1" source="7QoOAAo-u6qLjZLmUV11-119" target="7QoOAAo-u6qLjZLmUV11-167">
          <mxGeometry width="50" height="50" relative="1" as="geometry">
            <mxPoint x="460" y="-1200" as="sourcePoint" />
            <mxPoint x="510" y="-1250" as="targetPoint" />
          </mxGeometry>
        </mxCell>
        <mxCell id="7QoOAAo-u6qLjZLmUV11-169" value="Устанавливать предельные акционные скидки для всех боссов" style="text;html=1;align=center;verticalAlign=middle;whiteSpace=wrap;rounded=0;" vertex="1" parent="1">
          <mxGeometry x="935" y="-1106" width="170" height="30" as="geometry" />
        </mxCell>
        <mxCell id="7QoOAAo-u6qLjZLmUV11-170" value="" style="endArrow=classic;html=1;rounded=0;" edge="1" parent="1" source="7QoOAAo-u6qLjZLmUV11-147">
          <mxGeometry width="50" height="50" relative="1" as="geometry">
            <mxPoint x="1010" y="-1190" as="sourcePoint" />
            <mxPoint x="960" y="-1120" as="targetPoint" />
          </mxGeometry>
        </mxCell>
      </root>
    </mxGraphModel>
  </diagram>
</mxfile>
